HIERARCHY
ROOT Hips
{
	OFFSET	0.0000	0.0000	0.0000
	CHANNELS 6 Xposition Yposition Zposition Xrotation Yrotation Zrotation
	JOINT Spine
	{
		OFFSET	0.0000	9.2806	-5.0222
		CHANNELS 3 Xrotation Yrotation Zrotation
		JOINT Spine1
		{
			OFFSET	0.0000	8.4692	0.4425
			CHANNELS 3 Xrotation Yrotation Zrotation
			JOINT Spine2
			{
				OFFSET	0.0000	10.4797	-2.3327
				CHANNELS 3 Xrotation Yrotation Zrotation
				JOINT Neck
				{
					OFFSET	-0.0001	29.9775	3.4151
					CHANNELS 3 Xrotation Yrotation Zrotation
					JOINT Head
					{
						OFFSET	-0.0001	9.6289	2.4647
						CHANNELS 3 Xrotation Yrotation Zrotation
						End Site
						{
							OFFSET	-0.0001	18.7626	-1.1835
						}
					}
				}
				JOINT LeftShoulder
				{
					OFFSET	2.3842	22.7902	7.8081
					CHANNELS 3 Xrotation Yrotation Zrotation
					JOINT LeftArm
					{
						OFFSET	13.9287	3.2690	-5.2895
						CHANNELS 3 Xrotation Yrotation Zrotation
						JOINT LeftForeArm
						{
							OFFSET	29.5874	-0.1050	-0.2563
							CHANNELS 3 Xrotation Yrotation Zrotation
							JOINT LeftHand
							{
								OFFSET	24.6822	0.0716	-0.1479
								CHANNELS 3 Xrotation Yrotation Zrotation
								JOINT LeftHandIndex1
								{
									OFFSET	9.5661	0.8366	2.6570
									CHANNELS 3 Xrotation Yrotation Zrotation
									JOINT LeftHandIndex2
									{
										OFFSET	3.5782	-0.8725	0.6305
										CHANNELS 3 Xrotation Yrotation Zrotation
										JOINT LeftHandIndex3
										{
											OFFSET	2.4428	-0.5958	0.4305
											CHANNELS 3 Xrotation Yrotation Zrotation
											End Site
											{
												OFFSET	1.7382	-0.5189	0.2820
											}
										}
									}
								}
								JOINT LeftHandMiddle1
								{
									OFFSET	9.7089	0.9661	0.2313
									CHANNELS 3 Xrotation Yrotation Zrotation
									JOINT LeftHandMiddle2
									{
										OFFSET	4.4243	0.0124	-0.0261
										CHANNELS 3 Xrotation Yrotation Zrotation
										JOINT LeftHandMiddle3
										{
											OFFSET	2.4524	0.0075	-0.0149
											CHANNELS 3 Xrotation Yrotation Zrotation
											End Site
											{
												OFFSET	2.2027	-0.1555	0.0030
											}
										}
									}
								}
								JOINT LeftHandRing1
								{
									OFFSET	9.2012	0.6448	-2.1768
									CHANNELS 3 Xrotation Yrotation Zrotation
									JOINT LeftHandRing2
									{
										OFFSET	4.0145	-0.2033	-0.2513
										CHANNELS 3 Xrotation Yrotation Zrotation
										JOINT LeftHandRing3
										{
											OFFSET	2.2877	-0.1151	-0.1437
											CHANNELS 3 Xrotation Yrotation Zrotation
											End Site
											{
												OFFSET	2.0227	-0.2487	-0.0956
											}
										}
									}
								}
								JOINT LeftHandPinky1
								{
									OFFSET	8.5383	-0.6488	-3.7594
									CHANNELS 3 Xrotation Yrotation Zrotation
									JOINT LeftHandPinky2
									{
										OFFSET	2.4693	-0.5149	-0.6816
										CHANNELS 3 Xrotation Yrotation Zrotation
										JOINT LeftHandPinky3
										{
											OFFSET	1.8108	-0.3771	-0.5002
											CHANNELS 3 Xrotation Yrotation Zrotation
											End Site
											{
												OFFSET	1.6072	-0.4416	-0.3687
											}
										}
									}
								}
								JOINT LeftHandThumb1
								{
									OFFSET	1.9789	-1.4978	1.5002
									CHANNELS 3 Xrotation Yrotation Zrotation
									JOINT LeftHandThumb2
									{
										OFFSET	3.6844	-1.2099	2.7778
										CHANNELS 3 Xrotation Yrotation Zrotation
										JOINT LeftHandThumb3
										{
											OFFSET	2.4261	-0.8682	1.7479
											CHANNELS 3 Xrotation Yrotation Zrotation
											End Site
											{
												OFFSET	1.7841	-0.6141	1.2216
											}
										}
									}
								}
							}
						}
					}
				}
				JOINT RightShoulder
				{
					OFFSET	-2.3842	22.7902	7.8081
					CHANNELS 3 Xrotation Yrotation Zrotation
					JOINT RightArm
					{
						OFFSET	-13.9312	3.2696	-5.2904
						CHANNELS 3 Xrotation Yrotation Zrotation
						JOINT RightForeArm
						{
							OFFSET	-29.5874	-0.1050	-0.2563
							CHANNELS 3 Xrotation Yrotation Zrotation
							JOINT RightHand
							{
								OFFSET	-24.6822	0.0716	-0.1478
								CHANNELS 3 Xrotation Yrotation Zrotation
								JOINT RightHandIndex1
								{
									OFFSET	-9.5662	0.8367	2.6570
									CHANNELS 3 Xrotation Yrotation Zrotation
									JOINT RightHandIndex2
									{
										OFFSET	-3.5782	-0.8725	0.6305
										CHANNELS 3 Xrotation Yrotation Zrotation
										JOINT RightHandIndex3
										{
											OFFSET	-2.4427	-0.5959	0.4306
											CHANNELS 3 Xrotation Yrotation Zrotation
											End Site
											{
												OFFSET	-1.7383	-0.5189	0.2820
											}
										}
									}
								}
								JOINT RightHandMiddle1
								{
									OFFSET	-9.7089	0.9662	0.2314
									CHANNELS 3 Xrotation Yrotation Zrotation
									JOINT RightHandMiddle2
									{
										OFFSET	-4.4243	0.0124	-0.0261
										CHANNELS 3 Xrotation Yrotation Zrotation
										JOINT RightHandMiddle3
										{
											OFFSET	-2.4524	0.0075	-0.0150
											CHANNELS 3 Xrotation Yrotation Zrotation
											End Site
											{
												OFFSET	-2.2027	-0.1555	0.0030
											}
										}
									}
								}
								JOINT RightHandRing1
								{
									OFFSET	-9.2012	0.6448	-2.1769
									CHANNELS 3 Xrotation Yrotation Zrotation
									JOINT RightHandRing2
									{
										OFFSET	-4.0145	-0.2032	-0.2513
										CHANNELS 3 Xrotation Yrotation Zrotation
										JOINT RightHandRing3
										{
											OFFSET	-2.2877	-0.1151	-0.1437
											CHANNELS 3 Xrotation Yrotation Zrotation
											End Site
											{
												OFFSET	-2.0227	-0.2487	-0.0956
											}
										}
									}
								}
								JOINT RightHandPinky1
								{
									OFFSET	-8.5383	-0.6488	-3.7594
									CHANNELS 3 Xrotation Yrotation Zrotation
									JOINT RightHandPinky2
									{
										OFFSET	-2.4693	-0.5149	-0.6816
										CHANNELS 3 Xrotation Yrotation Zrotation
										JOINT RightHandPinky3
										{
											OFFSET	-1.8107	-0.3770	-0.5002
											CHANNELS 3 Xrotation Yrotation Zrotation
											End Site
											{
												OFFSET	-1.6072	-0.4416	-0.3687
											}
										}
									}
								}
								JOINT RightHandThumb1
								{
									OFFSET	-1.9789	-1.4977	1.5001
									CHANNELS 3 Xrotation Yrotation Zrotation
									JOINT RightHandThumb2
									{
										OFFSET	-3.6843	-1.2101	2.7779
										CHANNELS 3 Xrotation Yrotation Zrotation
										JOINT RightHandThumb3
										{
											OFFSET	-2.4261	-0.8680	1.7479
											CHANNELS 3 Xrotation Yrotation Zrotation
											End Site
											{
												OFFSET	-1.7841	-0.6141	1.2216
											}
										}
									}
								}
							}
						}
					}
				}
			}
		}
	}
	JOINT RightUpLeg
	{
		OFFSET	-9.9279	4.1951	-0.8183
		CHANNELS 3 Xrotation Yrotation Zrotation
		JOINT RightLeg
		{
			OFFSET	-0.7944	-43.1819	0.0000
			CHANNELS 3 Xrotation Yrotation Zrotation
			JOINT RightFoot
			{
				OFFSET	0.0000	-42.4020	0.0000
				CHANNELS 3 Xrotation Yrotation Zrotation
				JOINT RightToeBase
				{
					OFFSET	0.0000	-4.6604	9.7454
					CHANNELS 3 Xrotation Yrotation Zrotation
					End Site
					{
						OFFSET	0.0000	0.0000	6.5378
					}
				}
			}
		}
	}
	JOINT LeftUpLeg
	{
		OFFSET	9.9278	4.1954	-0.8184
		CHANNELS 3 Xrotation Yrotation Zrotation
		JOINT LeftLeg
		{
			OFFSET	0.7945	-43.1822	0.0000
			CHANNELS 3 Xrotation Yrotation Zrotation
			JOINT LeftFoot
			{
				OFFSET	0.0000	-42.4020	0.0000
				CHANNELS 3 Xrotation Yrotation Zrotation
				JOINT LeftToeBase
				{
					OFFSET	0.0000	-4.6604	9.7454
					CHANNELS 3 Xrotation Yrotation Zrotation
					End Site
					{
						OFFSET	0.0000	0.0000	6.5378
					}
				}
			}
		}
	}
}
MOTION
Frames:	7
Frame Time: 0.0333333000
	0.0000	88.4702	2.9030	0.000000	0.000000	0.000000	0.000000	0.000000	0.000000	0.000000	0.000000	0.000000	0.000000	0.000000	0.000000	0.000000	0.000000	0.000000	0.000000	0.000000	0.000000	0.000000	0.000000	0.000000	0.000000	0.000000	0.000000	0.000000	0.000000	0.000000	0.000000	0.000000	0.000000	0.000000	0.000000	0.000000	0.000000	0.000000	0.000000	0.000000	0.000000	0.000000	0.000000	0.000000	0.000000	0.000000	0.000000	0.000000	0.000000	0.000000	0.000000	0.000000	0.000000	0.000000	0.000000	0.000000	0.000000	0.000000	0.000000	0.000000	0.000000	0.000000	0.000000	0.000000	0.000000	0.000000	0.000000	0.000000	0.000000	0.000000	0.000000	0.000000	0.000000	0.000000	0.000000	0.000000	0.000000	0.000000	0.000000	0.000000	0.000000	0.000000	0.000000	0.000000	0.000000	0.000000	0.000000	0.000000	0.000000	0.000000	0.000000	0.000000	0.000000	0.000000	0.000000	0.000000	0.000000	0.000000	0.000000	0.000000	0.000000	0.000000	0.000000	0.000000	0.000000	0.000000	0.000000	0.000000	0.000000	0.000000	0.000000	0.000000	0.000000	0.000000	0.000000	0.000000	0.000000	0.000000	0.000000	0.000000	0.000000	0.000000	0.000000	0.000000	0.000000	0.000000	0.000000	0.000000	0.000000	0.000000	0.000000	0.000000	0.000000	0.000000	0.000000	0.000000	0.000000	0.000000	0.000000	0.000000	0.000000	0.000000	0.000000	0.000000	0.000000	0.000000	0.000000	0.000000	0.000000	0.000000	0.000000	0.000000	0.000000	0.000000	0.000000	0.000000	0.000000	0.000000	0.000000
	1.3410	88.5099	-70.3267	9.799753	28.016990	-10.578210	0.000000	0.000000	0.000000	-6.088538	4.496214	2.627278	-6.088538	4.496215	2.627280	0.000000	-0.000001	0.000000	0.000000	-0.000001	0.000000	0.000000	0.000000	3.374253	5.653174	-8.164385	2.294968	0.000000	-5.458053	0.000000	0.000000	-0.000002	0.000000	-0.000001	0.000000	0.000000	0.000000	0.000000	0.000000	0.000000	0.000000	0.000000	-0.000001	0.000000	0.000000	0.000000	0.000000	0.000000	0.000000	0.000000	0.000000	-0.000001	0.000000	0.000000	0.000000	0.000000	0.000000	0.000000	0.000000	0.000000	-0.000001	0.000000	0.000000	0.000000	0.000000	0.000000	0.000000	0.000000	0.000000	-0.000001	0.000000	0.000000	0.000000	0.000000	0.000000	0.000000	0.000000	0.000000	0.000000	-0.000002	-0.528511	19.790030	-10.662250	-4.750196	0.000002	15.624250	-0.000002	-0.000002	-0.000001	-0.000001	-0.000001	-0.000001	0.000000	-0.000001	-0.000001	0.000000	-0.000001	-0.000001	0.000000	-0.000001	-0.000001	0.000000	-0.000001	-0.000001	0.000000	-0.000001	-0.000001	0.000000	-0.000001	-0.000001	0.000000	-0.000001	-0.000001	0.000000	-0.000001	-0.000001	0.000000	-0.000001	-0.000001	0.000000	-0.000001	-0.000001	0.000000	-0.000001	-0.000001	0.000000	-0.000001	-0.000001	0.000000	-0.000001	-0.000001	0.000000	-0.000001	-0.000001	0.000000	-2.495842	1.737769	-0.357022	4.834273	0.000003	0.000000	-5.021787	-6.116604	-3.224439	0.000000	0.000000	0.000000	-0.302916	1.726706	6.334480	0.687387	0.000004	0.000000	-67.208560	59.914570	86.821200	0.000000	-0.000002	0.000000
	1.3728	88.4722	-70.9081	11.131120	30.634270	-11.087760	0.000001	0.000005	-0.000001	-6.284476	3.229491	2.480026	-6.284475	3.229495	2.480026	0.000000	0.000000	0.000000	0.000000	0.000000	0.000000	0.000000	0.000001	3.064797	7.167083	-7.902066	1.809459	-0.000001	-7.933978	0.000000	0.000000	-0.000002	0.000000	0.000000	0.000000	0.000000	0.000000	0.000000	0.000000	0.000000	0.000000	0.000000	0.000000	0.000000	0.000000	0.000000	0.000000	0.000000	0.000000	0.000000	0.000000	0.000000	0.000000	0.000000	0.000000	0.000000	0.000000	0.000000	0.000000	0.000000	0.000000	0.000000	0.000000	0.000000	0.000000	0.000000	0.000000	0.000000	0.000000	0.000000	0.000000	0.000000	0.000000	0.000000	0.000000	0.000000	0.000000	0.000000	0.000000	0.000002	1.021085	19.189160	-12.039600	-6.980699	0.000000	17.173690	0.000001	0.000000	0.000000	0.000000	0.000000	0.000000	0.000000	0.000000	0.000000	0.000000	0.000000	0.000000	0.000000	0.000000	0.000000	0.000000	0.000000	0.000000	0.000000	0.000000	0.000000	0.000000	0.000000	0.000000	0.000000	0.000000	0.000000	0.000000	0.000000	0.000000	0.000000	0.000000	0.000000	0.000000	0.000000	0.000000	0.000000	0.000000	0.000000	0.000000	0.000000	0.000000	0.000000	0.000000	0.000000	0.000000	0.000000	0.000000	0.000000	-2.595603	1.406504	-0.981687	3.452390	-0.000002	0.000001	-1.373813	-4.170151	-2.068761	0.000000	0.000002	0.000000	-2.083671	0.656813	5.772452	1.561192	-0.000001	0.000000	-24.379590	31.897620	24.588490	-0.000001	0.000002	0.000002
	1.2257	88.5342	-71.0545	11.562220	32.046340	-11.355450	0.000000	0.000000	0.000000	-6.432920	2.367461	2.383637	-6.432921	2.367465	2.383637	0.000000	-0.000002	0.000000	0.000000	-0.000002	0.000000	0.000000	-0.000003	2.981765	7.273874	-7.442270	1.134736	0.000001	-8.059440	0.000000	0.000000	-0.000001	0.000000	0.000000	0.000000	0.000000	0.000000	0.000000	0.000000	0.000000	0.000000	0.000000	0.000000	0.000000	0.000000	0.000000	0.000000	0.000000	0.000000	0.000000	0.000000	0.000000	0.000000	0.000000	0.000000	0.000000	0.000000	0.000000	0.000000	0.000000	0.000000	0.000000	0.000000	0.000000	0.000000	0.000000	0.000000	0.000000	0.000000	0.000000	0.000000	0.000000	0.000000	0.000000	0.000000	0.000000	0.000000	0.000000	0.000000	-0.000004	2.060640	18.316690	-11.583990	-8.076521	0.000003	18.288180	-0.000001	-0.000001	-0.000001	0.000000	0.000002	-0.000004	0.000001	0.000000	0.000002	-0.000001	-0.000001	-0.000001	0.000000	0.000002	-0.000004	0.000001	0.000000	0.000002	-0.000001	-0.000001	-0.000001	0.000000	0.000002	-0.000004	0.000001	0.000000	0.000002	-0.000001	-0.000001	-0.000001	0.000000	0.000002	-0.000004	0.000001	0.000000	0.000002	-0.000001	-0.000001	-0.000001	0.000000	0.000002	-0.000004	0.000001	0.000000	0.000002	-0.000001	-0.000001	-0.000001	0.000000	-2.462382	0.400148	-0.937139	3.091292	0.000003	-0.000001	-0.844597	-3.846631	-1.875369	0.000000	-0.000002	0.000002	-2.558414	0.589802	6.023336	1.571825	0.000000	0.000000	-15.611270	9.133691	7.794903	-0.000001	-0.000002	0.000000
	1.1273	88.5769	-71.0034	11.516820	32.633350	-11.379170	0.000000	0.000000	0.000000	-6.548863	1.818866	2.326546	-6.548863	1.818859	2.326545	0.000000	0.000003	0.000000	0.000000	0.000001	0.000000	0.000000	0.000002	3.058706	7.377326	-6.891143	0.690673	0.000001	-7.260531	0.000000	0.000000	0.000000	0.000000	0.000000	0.000000	0.000000	0.000000	0.000000	0.000000	0.000000	0.000000	0.000000	0.000000	0.000000	0.000000	0.000000	0.000000	0.000000	0.000000	0.000000	0.000000	0.000000	0.000000	0.000000	0.000000	0.000000	0.000000	0.000000	0.000000	0.000000	0.000000	0.000000	0.000000	0.000000	0.000000	0.000000	0.000000	0.000000	0.000000	0.000000	0.000000	0.000000	0.000000	0.000000	0.000000	0.000000	0.000000	0.000000	0.000000	0.000002	2.711242	17.269270	-10.315570	-8.736377	0.000000	18.128870	-0.000001	0.000000	0.000000	0.000000	0.000000	0.000000	0.000000	0.000000	0.000000	0.000000	0.000000	0.000000	0.000000	0.000000	0.000000	0.000000	0.000000	0.000000	0.000000	0.000000	0.000000	0.000000	0.000000	0.000000	0.000000	0.000000	0.000000	0.000000	0.000000	0.000000	0.000000	0.000000	0.000000	0.000000	0.000000	0.000000	0.000000	0.000000	0.000000	0.000000	0.000000	0.000000	0.000000	0.000000	0.000000	0.000000	0.000000	0.000000	0.000000	-2.265463	-0.220084	-0.757008	3.175366	-0.000003	0.000000	-1.475985	-4.207898	-2.080020	0.000000	0.000000	0.000000	-2.343779	0.726226	6.316411	1.288063	0.000000	0.000000	-10.735920	5.140698	3.238932	0.000001	-0.000002	0.000000
	1.1348	88.5905	-70.9234	11.399420	32.944840	-11.366200	0.000000	0.000001	0.000000	-6.642026	1.514357	2.295817	-6.642026	1.514356	2.295817	0.000000	-0.000004	0.000000	0.000000	0.000004	0.000000	0.000000	-0.000006	3.190541	7.609013	-6.711964	0.501934	0.000000	-6.928118	0.000000	0.000000	0.000003	0.000000	0.000000	0.000001	0.000000	0.000000	0.000001	0.000000	0.000000	0.000001	0.000000	0.000000	0.000001	0.000000	0.000000	0.000001	0.000000	0.000000	0.000001	0.000000	0.000000	0.000001	0.000000	0.000000	0.000001	0.000000	0.000000	0.000001	0.000000	0.000000	0.000001	0.000000	0.000000	0.000001	0.000000	0.000000	0.000001	0.000000	0.000000	0.000001	0.000000	0.000000	0.000001	0.000000	0.000000	0.000001	0.000000	0.000000	-0.000003	3.077675	16.622180	-9.377342	-9.139485	0.000001	17.414170	0.000001	0.000000	-0.000001	0.000001	0.000000	-0.000006	0.000000	0.000000	0.000006	0.000000	0.000000	-0.000001	0.000001	0.000000	-0.000006	0.000000	0.000000	0.000006	0.000000	0.000000	-0.000001	0.000001	0.000000	-0.000006	0.000000	0.000000	0.000006	0.000000	0.000000	-0.000001	0.000001	0.000000	-0.000006	0.000000	0.000000	0.000006	0.000000	0.000000	-0.000001	0.000001	0.000000	-0.000006	0.000000	0.000000	0.000006	0.000000	0.000000	-0.000001	0.000001	-1.995040	-0.348884	-0.645610	3.121031	-0.000004	0.000002	-1.408353	-4.533307	-2.237141	-0.000001	0.000000	0.000001	-2.094183	0.771267	6.422375	1.226386	-0.000005	0.000001	-9.350507	5.001616	2.919154	0.000001	-0.000001	0.000000
	1.1376	88.6031	-70.8794	11.369630	33.217950	-11.425210	0.000000	0.000000	0.000000	-6.719972	1.381965	2.277910	-6.719971	1.381963	2.277909	0.000000	0.000002	0.000000	0.000000	-0.000001	0.000000	0.000001	-0.000003	3.279574	7.824304	-6.999240	0.460276	0.000000	-6.728802	0.000000	0.000000	0.000000	0.000000	0.000000	0.000000	0.000000	0.000000	0.000000	0.000000	0.000000	0.000000	0.000000	0.000000	0.000000	0.000000	0.000000	0.000000	0.000000	0.000000	0.000000	0.000000	0.000000	0.000000	0.000000	0.000000	0.000000	0.000000	0.000000	0.000000	0.000000	0.000000	0.000000	0.000000	0.000000	0.000000	0.000000	0.000000	0.000000	0.000000	0.000000	0.000000	0.000000	0.000000	0.000000	0.000000	0.000000	0.000000	0.000000	0.000000	-0.000003	3.268457	16.143230	-9.120561	-9.295870	0.000001	17.192240	0.000000	0.000001	0.000002	0.000000	0.000001	0.000002	0.000000	0.000001	0.000002	0.000000	0.000001	0.000002	0.000000	0.000001	0.000002	0.000000	0.000001	0.000002	0.000000	0.000001	0.000002	0.000000	0.000001	0.000002	0.000000	0.000001	0.000002	0.000000	0.000001	0.000002	0.000000	0.000001	0.000002	0.000000	0.000001	0.000002	0.000000	0.000001	0.000002	0.000000	0.000001	0.000002	0.000000	0.000001	0.000002	0.000000	0.000001	0.000002	0.000000	-1.808671	-0.341996	-0.555453	3.014152	-0.000003	0.000001	-1.089540	-4.615430	-2.261115	0.000000	-0.000005	0.000001	-2.057616	0.786148	6.493159	1.372209	0.000000	0.000000	-9.345270	3.952465	2.305443	0.000000	0.000000	0.000000
